<?xml version="1.0" encoding="UTF-8" standalone="no"?>
<!-- Created with Inkscape (http://www.inkscape.org/) -->
<svg
   xmlns:dc="http://purl.org/dc/elements/1.1/"
   xmlns:cc="http://creativecommons.org/ns#"
   xmlns:rdf="http://www.w3.org/1999/02/22-rdf-syntax-ns#"
   xmlns:svg="http://www.w3.org/2000/svg"
   xmlns="http://www.w3.org/2000/svg"
   xmlns:sodipodi="http://sodipodi.sourceforge.net/DTD/sodipodi-0.dtd"
   xmlns:inkscape="http://www.inkscape.org/namespaces/inkscape"
   width="715.06366"
   height="196.93272"
   id="svg10869"
   sodipodi:version="0.32"
   inkscape:version="0.46"
   version="1.0"
   sodipodi:docname="logo.svg"
   inkscape:output_extension="org.inkscape.output.svg.inkscape">
  <defs
     id="defs10871">
    <inkscape:perspective
       sodipodi:type="inkscape:persp3d"
       inkscape:vp_x="0 : 526.18109 : 1"
       inkscape:vp_y="0 : 1000 : 0"
       inkscape:vp_z="744.09448 : 526.18109 : 1"
       inkscape:persp3d-origin="372.04724 : 350.78739 : 1"
       id="perspective10877" />
  </defs>
  <sodipodi:namedview
     id="base"
     pagecolor="#ffffff"
     bordercolor="#666666"
     borderopacity="1.0"
     gridtolerance="10000"
     guidetolerance="10"
     objecttolerance="10"
     inkscape:pageopacity="0.0"
     inkscape:pageshadow="2"
     inkscape:zoom="0.49497475"
     inkscape:cx="728.10599"
     inkscape:cy="-214.44073"
     inkscape:document-units="px"
     inkscape:current-layer="capa1"
     showgrid="false"
     inkscape:showpageshadow="false"
     inkscape:window-width="1280"
     inkscape:window-height="724"
     inkscape:window-x="0"
     inkscape:window-y="499" />
  <metadata
     id="metadata10874">
    <rdf:RDF>
      <cc:Work
         rdf:about="">
        <dc:format>image/svg+xml</dc:format>
        <dc:type
           rdf:resource="http://purl.org/dc/dcmitype/StillImage" />
      </cc:Work>
    </rdf:RDF>
  </metadata>
  <g
     inkscape:label="Capa 1"
     inkscape:groupmode="layer"
     id="capa1"
     transform="translate(11.817531,-65.324384)">
    <g
       id="g34614"
       transform="matrix(1.3086573,0,0,1.3086573,1453.8786,638.67644)">
      <path
         sodipodi:type="arc"
         style="opacity:1;fill:none;fill-opacity:1;fill-rule:nonzero;stroke:#0d0d0d;stroke-width:9.14144611;stroke-linecap:butt;stroke-linejoin:miter;marker:none;marker-start:none;marker-mid:none;marker-end:none;stroke-miterlimit:4;stroke-dasharray:none;stroke-dashoffset:0;stroke-opacity:1;visibility:visible;display:inline;overflow:visible;enable-background:accumulate"
         id="path4320"
         sodipodi:cx="-789.77271"
         sodipodi:cy="-1491.9561"
         sodipodi:rx="67.954544"
         sodipodi:ry="67.954544"
         d="M -739.74066,-1445.9711 A 67.954544,67.954544 0 1 1 -834.79175,-1542.859"
         sodipodi:start="0.74327311"
         sodipodi:end="3.9882541"
         sodipodi:open="true"
         transform="matrix(-0.5414622,0.5414622,-0.5414622,-0.5414622,-2132.2647,-759.04874)" />
      <path
         sodipodi:type="arc"
         style="opacity:1;fill:none;fill-opacity:1;fill-rule:nonzero;stroke:#0d0d0d;stroke-width:18.28289223;stroke-linecap:round;stroke-linejoin:miter;marker:none;marker-start:none;marker-mid:none;marker-end:none;stroke-miterlimit:4;stroke-dasharray:none;stroke-dashoffset:0;stroke-opacity:1;visibility:visible;display:inline;overflow:visible;enable-background:accumulate"
         id="path4322"
         sodipodi:cx="-789.77271"
         sodipodi:cy="-1491.9561"
         sodipodi:rx="67.954544"
         sodipodi:ry="67.954544"
         d="M -721.81816,-1491.9561 A 67.954544,67.954544 0 0 1 -766.52927,-1428.1003"
         sodipodi:start="0"
         sodipodi:end="1.2217053"
         sodipodi:open="true"
         transform="matrix(-0.4425783,-0.6248896,0.6248896,-0.4425783,-314.18464,-1532.7148)" />
      <g
         transform="matrix(0.7165,0,0,0.7165,25.233787,271.05521)"
         id="g3341">
        <path
           sodipodi:nodetypes="cssccssssccccssc"
           id="path4324"
           d="M -1276.7643,-844.99642 C -1265.3087,-837.35931 -1255.2598,-833.33976 -1245.211,-833.33976 C -1224.9123,-833.33976 -1211.4468,-848.61403 -1211.4468,-874.33909 C -1211.4468,-874.94199 -1211.4468,-875.74589 -1211.4468,-876.54979 L -1276.5634,-876.54979 C -1276.7643,-878.76059 -1276.7643,-880.77029 -1276.7643,-882.78009 C -1276.7643,-907.50029 -1262.4949,-922.37259 -1240.5885,-922.37259 C -1213.6576,-922.37259 -1194.1628,-901.67189 -1194.1628,-871.32439 C -1194.1628,-841.78082 -1212.4517,-821.88407 -1238.9807,-821.88407 C -1251.6422,-821.88407 -1264.7057,-825.90362 -1276.7643,-833.94269 L -1276.7643,-844.99642 M -1258.8774,-884.99089 L -1212.4517,-884.99089 C -1213.6576,-902.07389 -1225.1133,-913.32859 -1237.9758,-913.32859 C -1251.4412,-913.32859 -1258.8774,-904.48559 -1258.8774,-888.20649 C -1258.8774,-887.20159 -1258.8774,-885.99569 -1258.8774,-884.99089"
           style="font-size:40px;font-style:normal;font-variant:normal;font-weight:normal;font-stretch:normal;fill:#2d2d2d;fill-opacity:1;stroke:none;stroke-width:1px;stroke-linecap:butt;stroke-linejoin:miter;stroke-opacity:1;display:inline;font-family:Bitstream Charter;-inkscape-font-specification:Bitstream Charter" />
        <path
           sodipodi:nodetypes="cssccsscccccsscsscccccccccccsssccccccccccccsssccssccssssccccsscccccccscccscccccccccccccccccccccccccccccccccccccccccccssccssssccccsscccccccscccsccccccccccc"
           id="path4326"
           d="M -1598.3723,-827.58552 C -1589.1274,-823.56598 -1576.6668,-821.15426 -1562.1965,-821.15426 C -1530.0402,-821.15426 -1510.1434,-837.83537 -1510.1434,-861.55063 C -1510.1434,-870.39359 -1513.1581,-877.82979 -1518.9864,-883.65809 C -1528.2314,-892.70209 -1539.0841,-895.91769 -1549.334,-900.13819 C -1567.8238,-907.97629 -1577.4707,-913.00079 -1577.4707,-926.46619 C -1577.4707,-941.13749 -1567.2209,-950.78439 -1550.1379,-950.78439 C -1543.1037,-950.78439 -1537.0744,-949.37759 -1532.0499,-946.56389 L -1529.0353,-943.14729 L -1526.0206,-924.05449 L -1515.5698,-924.05449 L -1515.5698,-955.20589 C -1527.4275,-959.02449 -1538.6822,-960.83329 -1549.7359,-960.83329 C -1578.2746,-960.83329 -1596.1616,-944.95609 -1596.1616,-922.24569 C -1596.1616,-902.75089 -1584.5049,-895.31479 -1562.1965,-885.66789 C -1540.29,-876.22199 -1528.6333,-872.60439 -1528.6333,-855.92327 C -1528.6333,-841.8549 -1539.4861,-831.80604 -1558.9808,-831.80604 C -1568.0248,-831.80604 -1575.662,-833.41385 -1581.4903,-836.42851 L -1584.103,-839.84512 L -1586.5147,-862.95747 L -1598.3723,-862.95747 L -1598.3723,-827.58552 M -1493.9365,-779.753 L -1446.7069,-779.753 L -1446.7069,-786.98817 L -1459.5695,-787.99306 L -1462.9861,-791.20869 L -1462.9861,-824.77184 C -1455.5499,-823.56598 -1449.3196,-822.96305 -1444.2952,-822.96305 C -1414.5507,-822.96305 -1394.8549,-843.46273 -1394.8549,-875.21709 C -1394.8549,-903.35379 -1411.335,-922.24569 -1433.4425,-922.24569 C -1442.8884,-922.24569 -1452.3343,-918.22609 -1462.9861,-910.18709 L -1462.9861,-921.24079 L -1470.6232,-921.24079 L -1493.9365,-914.00559 L -1493.9365,-907.77529 L -1479.6672,-907.77529 L -1479.6672,-791.20869 L -1483.0838,-787.99306 L -1493.9365,-786.98817 L -1493.9365,-779.753 M -1462.9861,-835.22265 L -1462.9861,-902.75089 C -1455.349,-907.17239 -1448.7167,-909.58409 -1441.8835,-909.58409 C -1424.3985,-909.58409 -1412.5409,-895.71669 -1412.5409,-872.60439 C -1412.5409,-847.88422 -1426.2073,-832.00701 -1445.903,-832.00701 C -1450.7265,-832.00701 -1456.3539,-833.0119 -1462.9861,-835.22265 M -1297.827,-844.86954 C -1309.2827,-837.23243 -1319.3315,-833.21288 -1329.3804,-833.21288 C -1349.679,-833.21288 -1363.1445,-848.48715 -1363.1445,-874.21219 C -1363.1445,-874.81509 -1363.1445,-875.61899 -1363.1445,-876.42289 L -1298.028,-876.42289 C -1297.827,-878.63369 -1297.827,-880.64349 -1297.827,-882.65319 C -1297.827,-907.37339 -1312.0964,-922.24569 -1334.0028,-922.24569 C -1360.9337,-922.24569 -1380.4285,-901.54499 -1380.4285,-871.19749 C -1380.4285,-841.65394 -1362.1396,-821.75719 -1335.6106,-821.75719 C -1322.9491,-821.75719 -1309.8856,-825.77674 -1297.827,-833.81581 L -1297.827,-844.86954 M -1315.7139,-884.86399 L -1362.1396,-884.86399 C -1360.9338,-901.94699 -1349.4781,-913.20169 -1336.6155,-913.20169 C -1323.1501,-913.20169 -1315.7139,-904.35869 -1315.7139,-888.07959 C -1315.7139,-887.07469 -1315.7139,-885.86889 -1315.7139,-884.86399 M -1184.7837,-823.56598 L -1136.3483,-823.56598 L -1136.3483,-830.80115 L -1150.4167,-831.80604 L -1153.8333,-835.02167 L -1153.8333,-892.50109 C -1145.5932,-902.14799 -1138.559,-907.17239 -1131.9268,-907.17239 C -1127.7063,-907.17239 -1124.2896,-905.56459 -1121.6769,-902.34899 L -1115.2457,-902.34899 L -1115.2457,-919.63299 C -1119.4662,-921.44179 -1123.2848,-922.24569 -1127.3043,-922.24569 C -1128.9121,-922.24569 -1130.7209,-922.24569 -1132.3287,-921.84369 C -1139.5639,-916.01539 -1146.7991,-909.58409 -1153.8333,-902.34899 L -1153.8333,-921.24079 L -1161.4704,-921.24079 L -1184.7837,-914.00559 L -1184.7837,-907.77529 L -1170.5143,-907.77529 L -1170.5143,-835.02167 L -1174.1319,-831.80604 L -1184.7837,-830.80115 L -1184.7837,-823.56598 M -1108.8521,-823.56598 L -1064.8381,-823.56598 L -1064.8381,-830.80115 L -1074.2841,-831.80604 L -1077.9016,-835.02167 L -1077.9016,-869.18779 L -1066.245,-869.18779 L -1039.1131,-830.19822 L -1039.1131,-823.56598 L -1007.7607,-823.56598 L -1007.7607,-831.20311 L -1020.6233,-832.20799 L -1055.9952,-882.05029 L -1028.4614,-911.19189 L -1015.5988,-912.79979 L -1015.5988,-920.23589 L -1053.7844,-920.23589 L -1053.7844,-912.79979 L -1044.7405,-911.99589 L -1043.3337,-909.18219 L -1074.0831,-874.81509 L -1077.9016,-874.81509 L -1077.9016,-971.48499 L -1085.5388,-971.48499 L -1110.058,-964.24989 L -1110.058,-958.01959 L -1094.5827,-958.01959 L -1094.5827,-835.02167 L -1097.9993,-831.80604 L -1108.8521,-830.80115 L -1108.8521,-823.56598 M -919.81761,-844.86954 C -931.2733,-837.23243 -941.32216,-833.21288 -951.37099,-833.21288 C -971.66965,-833.21288 -985.13512,-848.48715 -985.13512,-874.21219 C -985.13512,-874.81509 -985.13512,-875.61899 -985.13512,-876.42289 L -920.01859,-876.42289 C -919.81761,-878.63369 -919.81761,-880.64349 -919.81761,-882.65319 C -919.81761,-907.37339 -934.087,-922.24569 -955.99346,-922.24569 C -982.92435,-922.24569 -1002.4191,-901.54499 -1002.4191,-871.19749 C -1002.4191,-841.65394 -984.13023,-821.75719 -957.60128,-821.75719 C -944.93974,-821.75719 -931.87623,-825.77674 -919.81761,-833.81581 L -919.81761,-844.86954 M -937.70456,-884.86399 L -984.13024,-884.86399 C -982.92439,-901.94699 -971.46869,-913.20169 -958.60616,-913.20169 C -945.14072,-913.20169 -937.70456,-904.35869 -937.70456,-888.07959 C -937.70456,-887.07469 -937.70456,-885.86889 -937.70456,-884.86399 M -905.30016,-823.56598 L -856.86471,-823.56598 L -856.86471,-830.80115 L -870.9331,-831.80604 L -874.34971,-835.02167 L -874.34971,-892.50109 C -866.10967,-902.14799 -859.07546,-907.17239 -852.44322,-907.17239 C -848.22272,-907.17239 -844.8061,-905.56459 -842.1934,-902.34899 L -835.76213,-902.34899 L -835.76213,-919.63299 C -839.98265,-921.44179 -843.80123,-922.24569 -847.82075,-922.24569 C -849.42857,-922.24569 -851.23737,-922.24569 -852.84517,-921.84369 C -860.08035,-916.01539 -867.31553,-909.58409 -874.34971,-902.34899 L -874.34971,-921.24079 L -881.98684,-921.24079 L -905.30016,-914.00559 L -905.30016,-907.77529 L -891.0308,-907.77529 L -891.0308,-835.02167 L -894.64838,-831.80604 L -905.30016,-830.80115 L -905.30016,-823.56598"
           style="font-size:40px;font-style:normal;font-variant:normal;font-weight:normal;font-stretch:normal;fill:#2d2d2d;fill-opacity:1;stroke:none;stroke-width:1px;stroke-linecap:butt;stroke-linejoin:miter;stroke-opacity:1;display:inline;font-family:Bitstream Charter;-inkscape-font-specification:Bitstream Charter" />
      </g>
    </g>
  </g>
</svg>
